<?xml version="1.0" standalone="no"?><!DOCTYPE svg PUBLIC "-//W3C//DTD SVG 1.1//EN" "http://www.w3.org/Graphics/SVG/1.1/DTD/svg11.dtd"><svg t="1662027520015" class="icon" viewBox="0 0 1024 1024" version="1.1" xmlns="http://www.w3.org/2000/svg" p-id="946" data-spm-anchor-id="a313x.7781069.0.i0" xmlns:xlink="http://www.w3.org/1999/xlink" width="200" height="200"><path d="M391.8 600.3v10.4h65.7l-1.4-10.4zM558.1 584.8h-2.4l2.4 2.1zM391.8 584.8v10.4h63.6l-1.4-10.4zM558.1 579.6v-10.4h-19.7l11.6 10.4zM441.3 569.2h-49.5v10.4h61.5l-0.8-5.8c-4-1-7.7-2.6-11.2-4.6z" fill="#1296db" opacity=".6" p-id="947"></path><path d="M738.5 503.9h-0.3c-1.7-25.5-17.4-47.6-39.9-59.8 6.2-2.9 12.5-6.9 18.5-11.9 23.1-19.1 32.9-45.4 21.9-58.7-11-13.3-38.7-8.7-61.8 10.4-6.6 5.5-12.1 11.6-16.4 17.8-0.7-27.1-12.7-113.5-184.4-113.5-159.7 0-181.1 79.9-184 110.1-4.4-6.8-10.4-13.6-17.7-19.6-23.1-19.1-50.8-23.8-61.8-10.4-11 13.3-1.2 39.6 21.9 58.7 8 6.6 16.5 11.4 24.7 14.4-25.4 11.4-43.4 34.9-45.2 62.4h-0.3v86h-4.8c-11.9 0-21.6 9.7-21.6 21.6v19.1c0 11.9 9.7 21.6 21.6 21.6h4.4v34.6c0 18.1 14.8 33 33 33h17.2c18.1 0 33-14.8 33-33v-34.6H463l-4.2-31.2h-76.2v-62.4h46.9c-5.5-7.1-8.8-16-8.8-25.7 0-23.1 18.8-41.9 41.9-41.9 23.1 0 41.8 18.8 41.8 41.9 0 1.7-0.1 3.4-0.3 5l22.9 20.7h42.7v22.8l47-94.1c-4.7-6.9-7.3-15.1-7.3-23.5 0-11.7 4.8-22.3 12.6-29.9H322.4v-27.4h0.4c2.3-23.7 19.9-86.9 152.9-86.9 137.5 0 151.8 63.2 153.2 86.9h0.1v21.9c6.5-4.1 14.1-6.5 22.2-6.5 23.1 0 41.8 18.8 41.8 41.9 0 8.4-2.6 16.6-7.2 23.5l52.4 105 0.1-0.1c0.1-0.6 0.2-88.2 0.2-88.2z m-402.2 28.9c0 20.1-16.3 36.4-36.4 36.4-20.1 0-36.4-16.3-36.4-36.4 0-20.1 16.3-36.4 36.4-36.4 20.1 0 36.4 16.3 36.4 36.4z" fill="#1296db" opacity=".6" p-id="948" data-spm-anchor-id="a313x.7781069.0.i1" class="selected"></path><path d="M301.6 532.8m-20.8 0a20.8 20.8 0 1 0 41.6 0 20.8 20.8 0 1 0-41.6 0Z" fill="#1296db" opacity=".6" p-id="949"></path><path d="M838.9 504.3c-15.9 0-28.8 12.9-28.8 28.8 0 3.6 0.7 7.1 1.9 10.3l-77.8 70.2-63.9-128.1c6-5.3 9.7-13 9.7-21.6 0-15.9-12.9-28.8-28.8-28.8s-28.8 12.9-28.8 28.8c0 8.6 3.8 16.3 9.8 21.6l-63.9 128.1-78.6-70.9c1.1-3 1.7-6.2 1.7-9.6 0-15.9-12.9-28.8-28.8-28.8s-28.8 12.9-28.8 28.8 12.9 28.8 28.8 28.8c0.5 0 1.1-0.1 1.6-0.1l25 186.4c0-0.8 0-1.5-0.1-2.4 1.6 14 11.1 25.7 23.8 30.5-1.2-0.4-2.3-0.8-3.4-1 27.1 10.1 80.1 16.7 141.3 16.1 61.4-0.5 115-8.1 142.5-18.8-1 0.2-2.1 0.5-3.2 0.9 12.7-4.9 22.2-16.5 23.8-30.5-0.2 1.6-0.2 3.2-0.1 4.6l24.8-185.8h0.5c15.9 0 28.8-12.9 28.8-28.8-0.1-15.8-13-28.7-29-28.7zM625.2 760h-48.9l-18.6-123.7h33.9c3.9 34.1 6.8 62.9 8.4 86.5 1.7-23.8 3.4-45 5.3-63.5l2.2-23h33.9L625.2 760z m53.9 0H647V636.3h32.2V760z m82.2-78.3c0 7.9-0.8 13.7-2.4 17.3s-4.6 6.4-9 8.3c-4.4 1.9-10 2.9-17.1 2.9h-8.6V760H692V636.3h32.4c8.8 0 15.5 0.7 20.2 2.1 4.7 1.4 8.3 3.4 10.6 6 2.4 2.6 4 5.7 4.8 9.4s1.3 9.4 1.3 17.2v10.7z" fill="#1296db" p-id="950" data-spm-anchor-id="a313x.7781069.0.i2" class="selected"></path><path d="M724.2 657.5V689c0.9 0.1 1.7 0.1 2.4 0.1 3 0 5-0.7 6.2-2.2 1.1-1.5 1.7-4.5 1.7-9.1v-10.2c0-4.2-0.7-7-2-8.3s-4.1-1.8-8.3-1.8z" fill="#1296db" p-id="951"></path></svg>