<?xml version="1.0" standalone="no"?><!DOCTYPE svg PUBLIC "-//W3C//DTD SVG 1.1//EN" "http://www.w3.org/Graphics/SVG/1.1/DTD/svg11.dtd"><svg t="1662027664781" class="icon" viewBox="0 0 1024 1024" version="1.1" xmlns="http://www.w3.org/2000/svg" p-id="1873" xmlns:xlink="http://www.w3.org/1999/xlink" width="200" height="200"><path d="M980 449.8c-6 7.4-14.6 11.4-23.6 11.4-6.6 0-13-2.2-18.6-6.4l-8-6.4v62.8c0 16.6-13.4 30-30 30s-30-13.4-30-30v-106c0-1.4 0.2-2.8 0.4-4L555.8 152.2c-25.8-19-61.6-19-87.4 0L148 407.2v422.4c0 25.8 21 46.6 46.6 46.6h496c16.6 0 30 13.4 30 30s-13.4 30-30 30h-496c-58.8-0.2-106.6-48-106.6-106.8V454.8c-13 10-31.6 7.8-41.8-5-10.4-13-8.2-31.8 4.8-42.2L431.8 104.8l0.4-0.2c47-35.2 112.8-35.2 159.8-0.2l0.8 0.6 382.6 302.8c12.8 10 15 29 4.6 42z m-318.6 66.6l-148.8 148.8-69.4-69.2c-11.8-11.8-30.8-11.8-42.4 0s-11.8 30.8 0 42.4l90.6 90.6c5.6 5.6 13.2 8.8 21.2 8.8s15.6-3.2 21.2-8.8l170-170c11.8-11.8 11.8-30.8 0-42.4-11.8-11.8-30.8-11.8-42.4-0.2z m275.8 107H830c-16.6 0-30 13.4-30 30s13.4 30 30 30h107.2c16.6 0 30-13.4 30-30s-13.4-30-30-30z m0 108.6h-148.6c-16.6 0-30 13.4-30 30s13.4 30 30 30h148.6c16.6 0 30-13.4 30-30s-13.4-30-30-30z" p-id="1874"></path></svg>