<?xml version="1.0" standalone="no"?><!DOCTYPE svg PUBLIC "-//W3C//DTD SVG 1.1//EN" "http://www.w3.org/Graphics/SVG/1.1/DTD/svg11.dtd"><svg t="1661519784185" class="icon" viewBox="0 0 1024 1024" version="1.1" xmlns="http://www.w3.org/2000/svg" p-id="3423" width="42" height="42" xmlns:xlink="http://www.w3.org/1999/xlink"><path d="M512 17.92C240.64 17.92 20.48 240.64 20.48 509.44S240.64 1000.96 512 1000.96s491.52-220.16 491.52-491.52S783.36 17.92 512 17.92z m299.52 355.84L483.84 704c-12.8 12.8-30.72 20.48-48.64 20.48s-35.84-7.68-48.64-20.48l-168.96-168.96c-12.8-12.8-12.8-30.72 0-43.52s30.72-12.8 43.52 0l168.96 168.96c2.56 2.56 10.24 2.56 12.8 0L768 330.24c12.8-12.8 30.72-12.8 43.52 0s12.8 33.28 0 43.52z" p-id="3424" fill="#32cd32"></path></svg>